<svg width="97" height="66" viewBox="0 0 97 66" fill="none" xmlns="http://www.w3.org/2000/svg">
<path opacity="0.4" d="M94.94 54.8254V59.4154C88.801 60.8444 82.5883 61.936 76.3299 62.6854C57.8024 64.8988 39.0774 64.8988 20.55 62.6854C14.2949 61.9361 8.08547 60.8444 1.94987 59.4154V54.8254C1.94632 54.2212 2.17969 53.6396 2.59989 53.2054L7.53996 48.1355C9.03008 46.6063 10.9788 45.6055 13.0899 45.2855L20.1999 43.3655C38.9575 45.6459 57.9224 45.6459 76.68 43.3655L83.79 45.2855C85.9017 45.6034 87.8511 46.6045 89.3399 48.1355L94.2799 53.2054C94.7029 53.6386 94.9398 54.22 94.94 54.8254Z" fill="#820000"/>
<path d="M48.4399 46.1154C46.8499 46.1154 45.2699 46.1154 43.6899 46.0554C42.1099 45.9954 40.5198 46.0554 38.9498 45.9854C37.3798 45.9154 35.7698 45.9854 34.1998 45.9854C32.6298 45.9854 31.0298 45.7755 29.4598 45.6455C27.8898 45.5155 26.3199 45.1454 24.7499 44.9854C23.1799 44.8254 21.5999 44.6754 20.0399 44.4854C18.6999 44.3154 17.4298 44.0555 16.1998 43.8755C14.9698 43.6954 13.6099 43.4755 12.3699 43.2655C11.3699 43.0955 11.2899 43.4655 10.2799 43.2655C9.9564 43.1636 9.67271 42.9634 9.46837 42.6927C9.26403 42.422 9.1492 42.0945 9.13988 41.7555C9.06988 40.7555 9.13988 39.8154 9.13988 38.8254C9.13988 37.8354 9.08988 37.0354 9.13988 36.2154C9.13068 35.4378 9.39229 34.6812 9.87987 34.0754C10.5899 33.3654 10.7399 33.5055 11.4399 32.7855C11.4871 32.7144 11.5114 32.6306 11.5099 32.5454C11.5099 32.2954 11.5699 32.0355 11.6199 31.7755C12.3127 28.4958 13.6007 25.3708 15.4199 22.5554C16.355 21.171 17.4233 19.8815 18.6098 18.7054C19.7033 17.4301 20.9154 16.2616 22.2298 15.2154C23.6241 14.2693 25.104 13.4558 26.6499 12.7855C29.7651 11.5024 33.0614 10.7128 36.4199 10.4454C38.0099 10.3654 39.6098 10.5454 41.2198 10.4454C42.8298 10.3454 44.4099 10.2554 46.0099 10.2454C47.6099 10.2354 49.2099 10.0754 50.8099 10.0854C52.4099 10.0954 54.0098 10.4755 55.5998 10.5255C57.1898 10.5755 58.8099 10.4255 60.3999 10.5255C62.069 10.6632 63.7223 10.951 65.3398 11.3855C66.9629 11.7791 68.5463 12.3214 70.0699 13.0055C71.5766 13.7136 73.0157 14.5571 74.3699 15.5255C77.2811 17.2342 79.762 19.5873 81.6221 22.4043C83.4821 25.2212 84.6718 28.4271 85.0998 31.7755C85.1498 32.0355 85.1499 32.2954 85.1899 32.5554C85.1899 32.6154 85.3599 32.6654 85.4099 32.7154C86.1199 33.4354 86.0599 33.4954 86.7699 34.2154C87.3775 34.7283 87.7906 35.4344 87.9399 36.2154C87.9399 37.0354 87.9399 37.9054 87.9399 38.8254C87.9399 39.7454 87.5198 40.8254 87.4498 41.7454C87.4639 42.0292 87.3677 42.3073 87.1813 42.5217C86.9949 42.736 86.7327 42.87 86.4498 42.8955C85.4498 43.0755 85.4498 43.2155 84.4498 43.3855C83.2098 43.5955 81.9499 43.8455 80.6199 44.0355C79.2899 44.2255 78.1199 44.4555 76.7799 44.6255C75.2199 44.8255 73.6499 45.0154 72.0699 45.1854C70.4899 45.3554 68.9198 45.4354 67.3298 45.5654C65.7398 45.6954 64.1698 45.5654 62.5798 45.6255C60.9898 45.6855 59.4398 46.0254 57.8498 46.0854C56.2598 46.1454 54.6898 46.0855 53.0998 46.1355C51.5098 46.1855 50.0099 46.1154 48.4399 46.1154ZM11.8498 40.5155C12.2098 40.7855 12.3499 40.6254 12.7899 40.7054C14.0099 40.9054 15.2798 41.0354 16.5798 41.2254C17.8798 41.4154 19.0799 41.3854 20.3999 41.5554C21.9399 41.7454 23.4899 41.9254 25.0499 42.0854C26.6099 42.2454 28.1298 42.6254 29.6998 42.7454C31.2698 42.8654 32.8099 42.9454 34.3799 43.0454C35.9499 43.1454 37.4899 43.2954 39.0599 43.3554C40.6299 43.4154 42.1799 43.4755 43.7499 43.5055C45.3199 43.5355 46.8699 43.1754 48.4399 43.1754C50.0099 43.1754 51.5699 43.3754 53.1299 43.3454C54.6899 43.3154 56.2698 43.3954 57.8298 43.3454C59.3898 43.2954 60.9499 43.1255 62.4999 43.0355C64.0499 42.9455 65.6199 42.6054 67.1699 42.4854C68.7199 42.3654 70.3098 42.4155 71.8498 42.2655C73.3898 42.1155 74.9599 41.8854 76.4999 41.6954C77.8199 41.5254 79.0799 41.3355 80.2899 41.1555C81.4999 40.9755 82.8598 40.8455 84.0798 40.6455C84.5298 40.5655 84.6299 40.7454 84.9999 40.4754C84.9999 39.9354 85.1299 39.3554 85.1299 38.8154C85.1299 37.9554 84.7698 37.1854 84.7198 36.4154C84.7198 36.3354 84.7198 36.3455 84.7198 36.2855C84.0198 35.5655 84.0598 35.5254 83.3598 34.8154C82.8636 34.3496 82.5158 33.7479 82.3598 33.0854C82.3598 32.8154 82.5198 32.5354 82.4698 32.2954C82.1602 30.8355 81.7011 29.4113 81.0998 28.0454C80.5007 26.6856 79.7671 25.3892 78.9099 24.1754C78.1842 22.8663 77.3336 21.6306 76.3699 20.4854C75.2715 19.4687 74.0796 18.558 72.8099 17.7655C71.6144 16.8708 70.335 16.0938 68.9899 15.4454C67.6209 14.8295 66.1983 14.3408 64.7399 13.9854C63.2843 13.6155 61.7983 13.3779 60.2999 13.2755C58.7299 13.1955 57.1499 13.2754 55.5599 13.1754C53.9699 13.0754 52.3999 13.3254 50.8199 13.3154C49.2399 13.3054 47.6598 13.3154 46.0798 13.3154C44.4998 13.3154 42.9098 13.1354 41.3398 13.1854C39.7698 13.2354 38.1698 13.2454 36.5998 13.3254C35.106 13.4402 33.6263 13.6947 32.1799 14.0854C30.7214 14.4036 29.2954 14.8554 27.9199 15.4354C26.5864 16.1117 25.3235 16.919 24.1499 17.8454C20.1917 20.0889 17.1582 23.6645 15.5898 27.9354C15.0721 29.345 14.6936 30.8021 14.4598 32.2855C14.4598 32.5255 14.4599 32.7654 14.3899 32.9954C14.2937 33.6682 14.0016 34.2976 13.5499 34.8054C12.8499 35.5154 12.8599 35.5254 12.1599 36.2354C12.0999 36.3054 12.0499 36.3055 12.0399 36.3755C12.0399 37.1455 11.6899 37.9254 11.6899 38.7954C11.6799 39.3454 11.8298 39.9755 11.8498 40.5155Z" fill="#820000"/>
<path d="M48.4401 65.5155C46.8701 65.5155 45.3 65.7455 43.75 65.7155C42.2 65.6855 40.6201 65.3155 39.0701 65.2555C37.5201 65.1955 35.92 65.3755 34.37 65.2555C32.82 65.1355 31.26 64.7755 29.71 64.6555C28.16 64.5355 26.57 64.5654 25.03 64.4154C23.49 64.2654 21.89 64.2255 20.35 64.0355C20.35 64.0355 20.35 63.5654 20.26 63.5554C18.68 63.3654 17.06 63.5555 15.51 63.3655C13.96 63.1755 12.39 62.7855 10.86 62.5155C9.32999 62.2455 7.80002 61.6455 6.27002 61.3355C4.74002 61.0255 3.08007 61.0755 1.57007 60.7155C1.23995 60.5957 0.954945 60.3766 0.754395 60.0883C0.553844 59.8 0.447475 59.4567 0.449951 59.1055C0.449951 56.8155 0.380005 56.8155 0.380005 54.5255C0.412775 53.5212 0.831943 52.5683 1.55005 51.8655C4.01005 49.3355 3.99996 49.3155 6.45996 46.7855C8.16835 45.0553 10.3809 43.9106 12.78 43.5155C14.56 43.1155 14.5601 43.1255 16.3201 42.6455C18.0801 42.1655 18.1 42.2654 19.86 41.7954C20.04 41.7954 20.21 41.5655 20.39 41.5855C21.93 41.7855 23.4901 41.8055 25.0601 41.9655C26.6301 42.1255 28.16 42.2455 29.72 42.3655C31.28 42.4855 32.83 42.6155 34.39 42.7155C35.95 42.8155 37.4901 43.2155 39.0601 43.2755C40.6301 43.3355 42.18 43.2755 43.75 43.2755C45.32 43.2755 46.8701 43.2755 48.4401 43.2755C50.0101 43.2755 51.57 43.0455 53.13 43.0155C54.69 42.9855 56.2501 42.9255 57.8101 42.8655C59.3701 42.8055 60.94 42.8655 62.49 42.7455C64.04 42.6255 65.6401 42.8155 67.1901 42.7455C68.7401 42.6755 70.31 42.3855 71.85 42.2255C73.39 42.0655 74.97 41.9155 76.51 41.7255C76.7 41.7255 76.82 41.8455 76.99 41.8955C78.75 42.3655 78.83 42.0854 80.59 42.5554C82.35 43.0254 82.33 43.1154 84.11 43.5554C86.4742 44.0112 88.6299 45.2135 90.26 46.9855C92.72 49.5255 92.76 49.4955 95.26 51.9855C96.0159 52.629 96.4956 53.5383 96.6 54.5255C96.6 56.8155 96.6 56.8155 96.6 59.1055C96.6 59.7755 95.87 60.1955 95.23 60.3455C93.72 60.7055 92.23 61.0755 90.62 61.3455C89.01 61.6155 87.54 61.8954 85.97 62.1654C84.4 62.4354 82.91 62.8555 81.33 63.0855C79.75 63.3155 78.23 63.5555 76.65 63.7455C76.65 63.7455 76.58 63.9655 76.53 63.9755C74.99 64.1655 73.44 64.3755 71.88 64.5355C70.32 64.6955 68.74 64.4455 67.17 64.5355C65.6 64.6255 64.07 64.8855 62.5 64.9755C60.93 65.0655 59.4 65.4155 57.83 65.4755C56.26 65.5355 54.71 65.5455 53.14 65.5755C51.57 65.6055 50.0101 65.5155 48.4401 65.5155ZM20.87 61.0155C22.39 61.2055 23.93 61.1355 25.47 61.2855C27.01 61.4355 28.47 61.9055 30.03 62.0255C31.59 62.1455 33.1 62.0255 34.64 62.0855C36.18 62.1455 37.64 62.5255 39.22 62.5855C40.8 62.6455 42.29 62.5055 43.84 62.5855C45.39 62.6655 46.9001 62.4855 48.4401 62.4855C49.9801 62.4855 51.5201 62.9155 53.05 62.8955C54.58 62.8755 56.12 62.3654 57.65 62.3054C59.18 62.2454 60.72 62.3054 62.25 62.1754C63.78 62.0454 65.34 62.2954 66.87 62.1754C68.4 62.0554 69.87 61.5055 71.41 61.3555C72.95 61.2055 74.49 61.1855 76 61.0055C76 61.0055 76.09 60.9055 76.14 60.9055C77.61 60.7255 79.07 60.6155 80.51 60.4055C81.95 60.1955 83.43 59.9354 84.86 59.6954C86.29 59.4554 87.7601 59.1954 89.1901 58.9154C90.6201 58.6354 92.11 58.3754 93.52 58.0554C94.13 56.4454 93.62 56.3255 93.62 54.6055C93.62 54.3655 93.37 54.1855 93.22 54.0255C90.75 51.4955 90.64 51.6055 88.22 49.0255C86.9823 47.7455 85.3529 46.9149 83.59 46.6654L83.42 46.6055C79.99 45.6855 80.13 45.1354 76.65 44.4454C75.11 44.6354 73.53 44.9155 71.96 45.0755C70.39 45.2355 68.85 45.3955 67.28 45.5255C65.71 45.6555 64.17 45.9654 62.6 46.0654C61.03 46.1654 59.48 46.2454 57.9 46.3054C56.32 46.3654 54.77 46.3054 53.2 46.3054C51.63 46.3054 50.06 46.0654 48.49 46.0654C46.92 46.0654 45.35 46.1455 43.79 46.1155C42.23 46.0855 40.65 46.0155 39.09 45.9555C37.53 45.8955 35.96 45.6755 34.41 45.5855C32.86 45.4955 31.25 45.6755 29.7 45.5855C28.15 45.4955 26.57 45.3055 25.02 45.1455C23.47 44.9855 21.8701 44.5955 20.3201 44.4055C16.8501 45.0855 16.9 45.4054 13.48 46.2954C13.43 46.2954 13.48 46.6355 13.39 46.6355C11.631 46.906 10.0104 47.7497 8.78003 49.0355C6.31003 51.5755 6.03006 51.2955 3.56006 53.8355C3.39227 54.0418 3.30047 54.2995 3.30005 54.5654C3.30005 56.2854 2.66005 56.4555 3.30005 58.0755C4.71005 58.3955 6.30002 58.6554 7.77002 58.9454C9.24002 59.2354 10.64 59.4655 12.11 59.7155C13.58 59.9655 15.02 59.9855 16.48 60.2055C17.94 60.4255 19.38 60.5755 20.85 60.7555C20.81 60.7455 20.83 60.9755 20.87 60.9755V61.0155Z" fill="#820000"/>
<path d="M48.4398 50.3755C46.8798 50.3755 45.3297 50.3754 43.7797 50.3154C42.2297 50.2554 40.6597 50.3954 39.1197 50.3154C37.5797 50.2354 35.9997 50.1155 34.4597 50.0355C32.9197 49.9555 31.3297 50.0355 29.7897 49.8755C28.2497 49.7155 26.6897 49.5555 25.1497 49.4055C23.6097 49.2555 22.0397 49.1955 20.4997 49.0055C18.9597 48.8155 17.4297 48.4655 15.8997 48.2455C14.3697 48.0255 12.8298 47.7255 11.3098 47.4755C10.6998 47.3855 10.0597 47.5455 9.45967 47.4755C9.27967 47.4755 9.2997 47.3454 9.1197 47.3154C8.9397 47.2854 8.69972 46.9055 8.63972 46.5955C8.58661 46.4639 8.57941 46.3184 8.61934 46.1823C8.65926 46.0461 8.74394 45.9275 8.85969 45.8455C10.0865 44.9982 11.4815 44.4252 12.9497 44.1654C14.7197 43.7454 14.7097 43.6854 16.4597 43.1654C18.2097 42.6454 18.1798 42.5454 19.9398 42.0654C20.0398 42.0654 20.1697 42.5055 20.2697 42.5255C21.8097 42.7155 23.3997 42.6754 24.9597 42.8354C26.5197 42.9954 28.0998 42.8355 29.6698 43.0055C31.2398 43.1755 32.7597 43.6054 34.3297 43.6954C35.8997 43.7854 37.4497 43.9755 39.0297 44.0355C40.6097 44.0955 42.1697 43.6754 43.7397 43.7054C45.3097 43.7354 46.8698 44.0055 48.4398 44.0055C50.0098 44.0055 51.5797 44.0055 53.1497 44.0055C54.7197 44.0055 56.2797 43.7055 57.8397 43.6455C59.3997 43.5855 60.9697 43.4855 62.5297 43.3955C64.0897 43.3055 65.6897 43.5455 67.2497 43.3955C68.8097 43.2455 70.3698 43.0455 71.9198 42.8855C73.4697 42.7255 75.0597 42.6454 76.6097 42.4454C76.7097 42.4454 76.7497 42.3754 76.8497 42.4454C78.6297 42.9154 78.6498 42.8254 80.4298 43.3054C82.2098 43.7854 82.1797 43.8854 83.9797 44.3054C85.4342 44.4784 86.8353 44.9591 88.0897 45.7155C88.3597 45.8855 88.2697 46.2454 88.1997 46.5554C88.1972 46.6829 88.1462 46.8047 88.057 46.8958C87.9677 46.9868 87.8471 47.0403 87.7197 47.0454C87.0097 47.1654 86.2998 47.3855 85.5698 47.4955C84.0498 47.7555 82.5097 47.9255 80.9597 48.1455C79.4097 48.3655 77.8997 48.6254 76.3497 48.8154C74.7997 49.0054 73.2797 49.2954 71.7297 49.4454C70.1797 49.5954 68.6298 49.5255 67.0698 49.6355C65.5098 49.7455 63.9798 49.9155 62.4198 50.0055C60.8597 50.0955 59.3397 50.4455 57.7797 50.4955C56.2197 50.5455 54.6697 50.1554 53.0997 50.1854C51.5297 50.2154 50.0098 50.3755 48.4398 50.3755ZM11.7697 46.1954C13.2697 46.4454 14.7697 46.6955 16.3297 46.9055C17.8897 47.1155 19.3297 47.1655 20.9097 47.3455C22.4897 47.5255 23.9097 47.7455 25.4797 47.8955C27.0497 48.0455 28.4798 48.0155 30.0698 48.1355C31.6598 48.2555 33.0697 48.4155 34.6497 48.5055C36.2297 48.5955 37.7097 48.5055 39.2497 48.6155C40.7897 48.7255 42.2497 48.8755 43.8397 48.9055C45.4297 48.9355 46.8998 49.0155 48.4398 49.0155C49.9798 49.0155 51.5097 48.7354 53.0397 48.7054C54.5697 48.6754 56.1097 48.7054 57.6297 48.7054C59.1497 48.7054 60.7197 48.7954 62.2397 48.7054C63.7597 48.6154 65.3097 48.4254 66.8297 48.3054C68.3497 48.1854 69.8297 47.9454 71.3997 47.8054C72.9697 47.6654 74.4597 47.4854 75.9697 47.3154C77.4797 47.1454 78.9697 46.7854 80.5097 46.5754C82.0497 46.3654 83.6698 46.5755 85.1698 46.3555C84.6889 46.1211 84.1908 45.9239 83.6798 45.7655C81.9198 45.3155 81.8497 45.5454 80.0897 45.0754C78.3297 44.6054 78.4497 44.0755 76.6497 43.7655C75.0997 43.9555 73.4898 44.0254 71.9298 44.1854C70.3698 44.3454 68.8497 44.9554 67.2797 45.0854C65.7097 45.2154 64.1398 45.0855 62.5598 45.1555C60.9798 45.2255 59.4297 45.2855 57.8597 45.3455C56.2897 45.4055 54.7297 45.6754 53.1597 45.7054C51.5897 45.7354 50.0198 45.7655 48.4398 45.7655C46.8598 45.7655 45.2997 45.3955 43.7397 45.3655C42.1797 45.3355 40.5897 45.3654 39.0297 45.3054C37.4697 45.2454 35.8897 45.0855 34.3297 44.9855C32.7697 44.8855 31.1897 44.8555 29.6297 44.7255C28.0697 44.5955 26.4898 44.5655 24.9398 44.4055C23.3898 44.2455 21.7897 44.0154 20.2497 43.8254C18.4597 44.0954 18.5398 44.4554 16.7998 44.9254C15.0598 45.3954 14.9997 45.1655 13.2497 45.6055C12.7418 45.7633 12.2469 45.9605 11.7697 46.1954Z" fill="#820000"/>
<path d="M52.01 0.915283L51.84 1.04529C51.84 0.975288 52.01 0.915283 52.01 0.915283Z" fill="#820000"/>
<path d="M51.0099 6.36551C50.3799 5.36551 50.4999 5.08553 50.8799 4.00553C51.8726 3.56249 52.7364 2.87425 53.3899 2.00553C53.544 1.84304 53.6535 1.64343 53.7078 1.42618C53.7621 1.20893 53.7593 0.981421 53.6998 0.765536C53.5198 0.375536 52.9799 0.275526 52.5499 0.255526C51.1899 0.195526 49.8198 0.0355556 48.4498 0.0355556C47.0798 0.0355556 45.6998 -0.0444444 44.3398 0.0355556C44.1064 0.064822 43.8833 0.148943 43.6886 0.281039C43.4939 0.413135 43.3333 0.58934 43.2198 0.795443C43.152 1.00856 43.1404 1.23565 43.1859 1.45462C43.2315 1.6736 43.3327 1.87705 43.4799 2.04544C44.0837 2.90963 44.9046 3.59945 45.8599 4.04544C46.2399 5.12544 46.4399 5.34545 45.8599 6.30545C44.8191 6.78895 43.9327 7.55146 43.299 8.50821C42.6652 9.46496 42.3091 10.5786 42.2699 11.7255C42.283 11.8483 42.3219 11.9669 42.3839 12.0738C42.4459 12.1806 42.5297 12.2732 42.6299 12.3455C42.8199 12.5155 43.0399 12.8855 43.2799 12.8655C44.5199 12.7755 45.6599 12.3355 46.8199 12.3255C47.9799 12.3155 49.0499 12.6655 50.1699 12.6955C51.2899 12.7255 52.5098 12.4955 53.7198 12.5855C53.7198 12.5855 53.7199 12.8355 53.7799 12.8355C54.0608 12.8334 54.3339 12.7423 54.5599 12.5755C54.7499 12.4055 54.6899 11.9855 54.6799 11.7355C54.6278 10.5877 54.2568 9.47718 53.6085 8.5286C52.9602 7.58002 52.0603 6.83097 51.0099 6.36551ZM50.1799 10.7555C49.0399 10.7555 47.8799 10.8555 46.7499 10.8855C45.9099 10.8855 44.9899 10.7955 44.1099 10.8855C44.3288 10.1884 44.7177 9.55647 45.2413 9.04679C45.765 8.5371 46.407 8.16555 47.1099 7.96549L47.0399 7.7255C47.1099 7.7255 47.2599 7.81545 47.3999 7.80545C47.5399 7.79545 47.5899 7.74548 47.6099 7.70548C47.6099 7.50548 47.6698 7.29549 47.7198 7.09549C47.7698 6.89549 47.5999 6.94553 47.6299 6.88553C47.6397 6.72902 47.6397 6.57195 47.6299 6.41544C47.6299 6.29544 47.6299 6.17545 47.6299 6.05545C47.6299 5.93545 47.6299 6.0555 47.6299 5.9755H47.5199C47.5199 5.7955 47.8199 5.61549 47.8899 5.46549C47.8899 4.46549 47.5099 4.46549 47.5099 3.46549C47.5099 3.08549 47.5099 2.53549 47.1299 2.46549C46.632 2.35868 46.1554 2.16947 45.7198 1.90555C47.5498 1.85555 49.3499 2.09554 51.1699 2.14554C50.7699 2.46554 50.2999 2.28546 49.8199 2.43546C49.3399 2.58546 49.2799 3.13554 49.2799 3.51554C49.2799 4.51554 49.1699 4.5155 49.1699 5.6055H49.4299C49.4299 5.7255 49.4999 5.85551 49.5199 5.98551H49.2599C49.2599 6.16551 49.2599 6.34555 49.3199 6.52555C49.3799 6.70555 49.4999 6.95545 49.4899 7.17545C49.4563 7.37171 49.4095 7.56556 49.3499 7.75553C49.5899 7.75553 49.8399 7.65546 49.9399 7.68546C50.6393 7.94598 51.2648 8.37236 51.7629 8.92801C52.2611 9.48366 52.617 10.152 52.7999 10.8755C51.8899 10.7855 51.0099 10.7655 50.1699 10.7555H50.1799Z" fill="#820000"/>
<path opacity="0.65" d="M48.4401 38.1555C53.6523 38.2057 58.8626 37.9284 64.04 37.3254C64.04 37.3254 61.88 23.4955 55.75 16.5255C50.896 15.9121 45.984 15.9121 41.13 16.5255C35.01 23.5255 32.84 37.3254 32.84 37.3254C38.0175 37.9284 43.2278 38.2057 48.4401 38.1555Z" fill="#FEEAEA"/>
<path opacity="0.65" d="M60.9 16.7053C66.2168 22.2422 69.8452 29.1799 71.36 36.7053L79.21 36.1454C79.21 36.1454 73.01 20.8353 60.9 16.7053Z" fill="#FEEAEA"/>
</svg>
