<svg xmlns="http://www.w3.org/2000/svg" width="113" height="107" fill="none" viewBox="0 0 113 107">
	<path fill="#820000"
		d="M65.555 106.805c-1.64 0-3.27-.61-4.91-.7-1.64-.09-3.31.25-5 .11a27.41 27.41 0 0 1-5.19-1.27 31.345 31.345 0 0 1-5.14-1.49 35.729 35.729 0 0 1-4.48-2.93c-1.6-1.06-3-2.19-4.27-3.17a37.22 37.22 0 0 0-3.3-1.92 13.472 13.472 0 0 1-3.14-3 17.085 17.085 0 0 1-1.83-3.9 13.903 13.903 0 0 1-1.48-4c-.15-1.731.104-3.474.74-5.09.6-1.51 2-2.6 3.31-3.81.58-.53.16-1 .95-1 .79 0 .28.54.81 1.12 1 1 2.76 1.63 4.6 2.38a24.195 24.195 0 0 0 4.85 1.61c1.693.234 3.402.334 5.11.3 1.712.204 3.437.277 5.16.22a29.221 29.221 0 0 0 5-1.41c.15 0 .12-.16.28-.18.16-.02 2-.13 5-.21 1.43 0 3.1.25 5 .29 1.54 0 3.21-.09 5 0 1.59.12 3.25.24 4.94.47 1.689.083 3.38.03 5.06-.16 1.693.085 3.388.085 5.08 0 1.65-.2 3.29-.73 5-1s3.33-.63 5-.93c1.45-.27 2.92-.3 4.31-.54 1.39-.24 2.88-.54 4.26-.72 1.38-.18 2.93-.58 4.29-.65a1.372 1.372 0 0 1 1.09.26c.47.29.25.48.47 1 .69 1.57.15 3.23-1 4.72-1 1.24-2.63 2.08-3.88 3.21-.69.75-1.313 1.56-1.86 2.42l-.31-.27c-.38.44-.33 1.34-.76 2a42.105 42.105 0 0 1-2.85 3.28 27.103 27.103 0 0 1-3 3 31.587 31.587 0 0 1-3.2 2.92c-1.08.75-2.34 1.48-3.7 2.28-1.36.8-2.89 1-4.2 1.64-1.31.64-2.61 1.57-4 2.06-1.39.49-2.94.72-4.35 1.08-1.41.36-2.89.91-4.34 1.13-1.45.22-3 .11-4.48.21-1.48.1-3.15.64-4.64.64Zm-33.61-27.8a7.061 7.061 0 0 0-2 5.18c.14 1.68 1.18 3.18 2 4.59a11.691 11.691 0 0 0 3.08 3.91c1 .66 2.36 1.17 3.52 2 1.16.83 2.33 2.18 3.75 3.14a34.831 34.831 0 0 0 4.2 2.51 27.43 27.43 0 0 0 4.69 1.37c1.551.451 3.142.753 4.75.9 1.67.14 3.3.68 4.94.77 1.64.09 3.34-.3 5-.31 1.66-.01 3.29-.05 4.95-.2 1.66-.15 3.36.15 5-.17a44.89 44.89 0 0 0 4.84-1.27 42.074 42.074 0 0 0 4.71-1.72 49.632 49.632 0 0 0 4.22-2.71 52.554 52.554 0 0 0 4.55-2.68 27.005 27.005 0 0 0 3.84-3.61 31.829 31.829 0 0 0 3.58-3.9c.354-.75.744-1.48 1.17-2.19a26.743 26.743 0 0 1 2.38-2.47 28.523 28.523 0 0 0 3.49-3.44c-1.65.16-3.47.11-5.31.41-1.68.28-3.4.8-5.19 1.12-1.79.32-3.49.7-5.24 1-1.75.3-3.49.93-5.22 1.14-1.73.21-3.63 0-5.35 0-1.777.14-3.562.14-5.34 0-1.61-.22-3.18-.34-4.7-.46s-3.24-.43-4.72-.46c-1.77 0-3.37 0-4.74.07a37.283 37.283 0 0 0-4.64.48 31.643 31.643 0 0 1-4.51.71c-3.01.45-6.06.587-9.1.41a33.08 33.08 0 0 1-4.4-1.19 28.381 28.381 0 0 1-4.45-.94 15.45 15.45 0 0 1-3.75-1.99Zm72 6.35s.26.31.26.3c0-.01-.25-.3-.25-.3h-.01Z" />
	<path fill="#820000"
		d="M31.785 77.825a1.26 1.26 0 0 1-.84-2.36 1.199 1.199 0 0 1 1.82 0 1.27 1.27 0 0 1 .1 2c-.136.11-.288.201-.45.27a1.17 1.17 0 0 1-.63.09Z" />
	<path fill="#820000"
		d="M24.625 81.155c-1.88 0-3.6-.94-5.12-1.62a18.446 18.446 0 0 1-4.45-2.88 41.205 41.205 0 0 1-3.63-2.56 28.28 28.28 0 0 1-3.23-3 23.16 23.16 0 0 1-2.88-3.33 24.432 24.432 0 0 1-2.43-3.76c-.54-1.32-.46-2.9-.84-4.41a44.088 44.088 0 0 1-1.33-4.28c-.25-1.61-.59-3.12-.7-4.57-.12-1.61.5-3.15.55-4.62a39.77 39.77 0 0 1 0-4.62c.24-1.51 1.07-2.88 1.48-4.37.41-1.49.19-3.11.74-4.6.55-1.49 1.37-2.7 2-4.18a27.334 27.334 0 0 1 2.27-3.7 25.385 25.385 0 0 1 2.29-3.66 34.557 34.557 0 0 1 3.2-2.93 18.738 18.738 0 0 0 3.6-4.23 18.378 18.378 0 0 1 3.27-4.11 21.881 21.881 0 0 1 4.58-2.52 15.61 15.61 0 0 1 4.8-2 8.26 8.26 0 0 0 4.4-2.68c0-.06-.17-.21-.13-.27.04-.06 0-.11.12-.2a2.78 2.78 0 0 1 1.8-1.11 3.23 3.23 0 0 1 2.33.82c.47.45.35 1.32.38 2 0 1.71.15 3.6.38 5.56.21 1.76.54 3.6.81 5.49.23 1.64.65 3.27.86 4.92.21 1.65.64 3.31.77 5s0 3.38 0 5c.066 1.668.01 3.34-.17 5-.23 1.49-.5 2.93-.63 4.34-.13 1.41-.47 3-.52 4.38-.07 1.63-.32 3.13-.31 4.4 0 2.31.12 4 .15 4.46a28.584 28.584 0 0 1 1 4.85c.177 1.64.234 3.291.17 4.94-.009 1.651-.146 3.3-.41 4.93a31.173 31.173 0 0 1-1.07 5.07c-1.57.18-1.92-.15-3.06-1.23a27.7 27.7 0 0 0 1-4.5c.422-1.457.73-2.945.92-4.45.091-1.523.068-3.05-.07-4.57-.18-1.46-1-2.85-1.45-4.33 0-.16-.11-.17-.13-.33-.02-.16 0-1.93-.08-4.66 0-1.33.41-2.88.48-4.61.06-1.44-.16-3 0-4.63.14-1.48.71-3 1-4.53a33.442 33.442 0 0 0 0-4.79c0-1.53-.22-3.11-.36-4.74-.14-1.63-.45-3.11-.65-4.71s.1-3.22-.12-4.78c-.25-1.77-.94-3.44-1.15-5.1-.21-1.66-.24-3.35-.32-5-1.12 1.24-3.31 3.55-5.7 3.71a10 10 0 0 0-3.85 1.29 18.814 18.814 0 0 0-3.65 2.12 15.47 15.47 0 0 0-2.46 3.41c-1.32 2.09-3.12 3.24-4.6 4.56a24.302 24.302 0 0 0-4.24 4 27.558 27.558 0 0 0-2.51 5.3c-.72 1.69-1.09 3.38-1.63 4.91a43.83 43.83 0 0 0-1.42 5 34.17 34.17 0 0 0-1.11 5 36.89 36.89 0 0 0 0 5.16c.09 1.61.53 3.26.82 5.1.193 1.588.477 3.164.85 4.72a27.35 27.35 0 0 0 1.53 4.56 21.829 21.829 0 0 0 2.28 4.3 23.151 23.151 0 0 0 3.71 3.17 36.228 36.228 0 0 0 3.94 2.79c.12.08.2 0 .32.06a11.33 11.33 0 0 0 3.39 2.49 10.34 10.34 0 0 0 4.13.79 6 6 0 0 0 3.9-1.12c1.4.71 1.74.89 1.74 2.47a9.28 9.28 0 0 1-5.55 2.22Z" />
	<path fill="#820000"
		d="M12.295 64.865a9 9 0 0 1-1.86-7.07c.144-.582.248-1.174.31-1.77 0-.44-.65-.73-1-1.25a9 9 0 0 1-1.53-3.8 15.601 15.601 0 0 1 0-3.92c.15-1.28.4-2.56.65-3.83a6.41 6.41 0 0 1 2.37-3.61c.88-.7.59-1.41.47-2.57a6 6 0 0 1 2.34-5.75c.418-.224.79-.522 1.1-.88a17.99 17.99 0 0 0 .5-3.33 19.26 19.26 0 0 1 .59-4.75 9.32 9.32 0 0 1 2.69-3.94c1.12-1 2.64-1.54 4.07-2.55a25.565 25.565 0 0 0 3.56-3.09 10.831 10.831 0 0 1-2.27 2.82c-.91.87-1.87 1.71-2.77 2.53a9.13 9.13 0 0 0-2.53 3.07 11.18 11.18 0 0 0-1.22 3.82c-.17 1.29-.32 2.63-.37 4.08 0 .91-.17 2.87-1.22 3.51a5.17 5.17 0 0 0-1.7 1.54c-1.1 1.63-.6 2.78-.55 4.7a3.74 3.74 0 0 1-1.12 2.61 3.91 3.91 0 0 0-1.59 2.34 37.004 37.004 0 0 0-1 5.11 9 9 0 0 0 .75 5.17 3.19 3.19 0 0 1 .55 2 9.478 9.478 0 0 1-.5 1.86 8.26 8.26 0 0 0 1.51 6.81l-.23.14Z" />
	<path fill="#820000"
		d="M20.255 71.795a7.27 7.27 0 0 1-3.57-3.4 11.35 11.35 0 0 1-1.09-5 6.57 6.57 0 0 1 1.32-3.15c.66.32 1.06 1 .39 1.3a6.28 6.28 0 0 1-1.78-4.06c-.26-1.08.24-2.61.07-3.39a7.46 7.46 0 0 1-1.72-3.71 6.6 6.6 0 0 1 1.52-3.89 6.78 6.78 0 0 0-.79 3.85 6.94 6.94 0 0 0 1.71 3.13c.36.35.8.68.84 1.08.07 1-.55 1.88-.29 2.73.3 1.35 1.8 2.29 2.82 3.1a7.82 7.82 0 0 0-1.28 6c.33 1.92.38 4.2 1.63 5.77.16.13.22-.36.22-.36ZM50.825 88.705a10.12 10.12 0 0 0 4.86 1.12 15.42 15.42 0 0 0 5.08-.09 20.836 20.836 0 0 0 3.31-1.91c1-.66 1.92-1.75 3.22-2 1.3-.25 2.54.73 3.6 1.08a17.77 17.77 0 0 0 5.82.68 10.83 10.83 0 0 0 5.5-1.72s.16-.51.4-.55c.24-.04.15.75.36.82 1.45.5 3 .23 4.41.34a15.18 15.18 0 0 0 4.32-.21 16.73 16.73 0 0 0 4.26-1.11c1.29-.748 2.5-1.626 3.61-2.62a20.798 20.798 0 0 1-3.56 3 11.33 11.33 0 0 1-8.77 3.09 20.427 20.427 0 0 1-4.7-1c-.33-.26 1.12-.46.91-.09a11.91 11.91 0 0 1-4.2 1.82 15.107 15.107 0 0 1-4.51.18 19.38 19.38 0 0 1-4.53-.57c-.68-.22-1.4-.78-1.79-.86a4.112 4.112 0 0 0-1.64-.09c-1.82.5-3.57 2.47-5.62 3a13.788 13.788 0 0 1-5.47 0 9.18 9.18 0 0 1-4.81-2.48l-.06.17ZM40.035 91.585c1.28 1.45 2.73 2.83 4.55 3.13a8 8 0 0 0 5.36-1.45c.075.47.202.929.38 1.37.74 1.54 3 1.45 4.48 2.19 1.84.83 3.23 2.09 5.18 2.37 1.332.3 2.687.484 4.05.55-1.87.83-4.33 1.49-6.42.79-1.31-.41-2.41-1.3-3.61-1.73-2.06-.62-5.06-1-5.83-3.53 0 0 1.64-.22 1.81.58a7.7 7.7 0 0 1-4 .24 8.13 8.13 0 0 1-3.83-1.06 6.93 6.93 0 0 1-2.52-3.22c-.04-.11.4-.23.4-.23ZM73.705 95.215a4.41 4.41 0 0 0 3.65 1.3 13.26 13.26 0 0 0 4-1.18 5.439 5.439 0 0 0 1.51-1.2 3.52 3.52 0 0 1 1-1.35c1.26-.76 2.28-.16 3.32.13a7.48 7.48 0 0 0 4.63 0 5.67 5.67 0 0 1-5 1.72c-.54 0-1.32-.2-1.58 0-.29 1.39-2.11 1.8-3.25 2.24-1.34.66-3 1.52-4.68 1.38a4.48 4.48 0 0 1-4-2.72c-.03-.19.4-.32.4-.32ZM32.265 77.415a14.602 14.602 0 0 0 1.38 4.38 6.08 6.08 0 0 0 2.93 2.56c.11 0 .71.12 1.14.25a6.06 6.06 0 0 1 3.09 2.37c1 1.33 2.23 1.55 3.88 1.66a4.18 4.18 0 0 1-2.54.91c-2.1-.21-3.15-2.4-5-2.81a5.72 5.72 0 0 1-4.4-3.54 9.41 9.41 0 0 1-1-5.84c0-.12.52.06.52.06ZM29.055 78.345a24.52 24.52 0 0 1-3.13-3.75 29.213 29.213 0 0 1-2.28-4.1 36.067 36.067 0 0 1-1.47-4.44c-.43-1.51-.77-3-1-4.56-.23-1.56-.1-3.17-.23-4.67s-.18-3.17-.18-4.64c0-1.71-.4-3.31-.27-4.68a16.002 16.002 0 0 1 1.17-4.52 17.12 17.12 0 0 0 1.28-6.79c0-1.3-.49-2.94-.36-5a22.36 22.36 0 0 1 1.31-4.86 38.18 38.18 0 0 1 1.56-4.74 7.33 7.33 0 0 0 .51-3.07c.076-1.523.307-3.034.69-4.51a30.006 30.006 0 0 1 1.86-4.12 30.85 30.85 0 0 1 2.07-3.94 40.451 40.451 0 0 1 2.53-4.14c1.54.34 1.83.88 2.34 2.37a32.477 32.477 0 0 0-3.13 4.24 24.912 24.912 0 0 0-2.12 4.87 17.752 17.752 0 0 0-.85 5.23 10.75 10.75 0 0 1-.87 4.36 28.085 28.085 0 0 0-2 4.06c-.35 1.28-.1 2.8-.21 4.48-.12 2-.53 3.5-.56 4.84a34.123 34.123 0 0 1-.31 4 16.68 16.68 0 0 1-1 3.85c-.34.88-.19 2.61-.33 4.77-.09 1.42-.69 3-.63 4.79.05 1.52.47 3.11.68 4.77.145 1.594.372 3.18.68 4.75a36 36 0 0 0 1.37 4.61 27.433 27.433 0 0 0 1.8 4.5 18.908 18.908 0 0 0 3.28 3.63c.3 1.61-.71 1.91-2.2 2.41Z" />
	<path fill="#820000"
		d="M110.325 78.035a1.798 1.798 0 0 1-1.41-.41c-1.38-1.74-3.44-2.25-6.29-2.64-.58-.08-1.21.07-1.81 0a46.193 46.193 0 0 1-5.42-1.36c-1.55-.43-3.26-1.24-5.62-1.77-1.62-.37-3.53-.67-5.81-1.05a45.253 45.253 0 0 0-5.18-.4 42.712 42.712 0 0 0-5.16.07 31.48 31.48 0 0 0-5.1.59c-.24.06-.3.24-.55.22-.25-.02-.16-.52-.39-.61a31.348 31.348 0 0 1-4.17-.74c-1.2-.3-2.49-1.19-4-1.41a33.267 33.267 0 0 0-4.23-.43 15.67 15.67 0 0 0-4.5.78 34.23 34.23 0 0 0-4.33 1.34 17.809 17.809 0 0 1-6.34 1.82 10.14 10.14 0 0 0-4.18 1.17 3.75 3.75 0 0 0-2.36 3.3 1.7 1.7 0 0 1-1.67 1.61 1.48 1.48 0 0 1-1.44-1.58 6.26 6.26 0 0 1 1.19-4.32 10.17 10.17 0 0 1 4-2.26 13.77 13.77 0 0 1 4.4-1 15.471 15.471 0 0 0 5.29-1.54 35.202 35.202 0 0 1 4.87-1.81 19.53 19.53 0 0 1 5.18-.61c1.48.076 2.952.243 4.41.5 1.58.23 3 .79 4.28 1.09 2 .49 3.53.89 4.25 1.14a48.95 48.95 0 0 1 5.43-.41 39.315 39.315 0 0 1 5.46-.47c1.66.11 3.45.61 5.39.94 1.48.24 2.8.44 4 .69 1.5.3 2.83.43 4 .72 1.51.37 2.68 1 3.82 1.36 1.669.488 3.365.876 5.08 1.16.58.09 1.12.38 1.67.46 1.563.157 3.107.465 4.61.92a7.997 7.997 0 0 1 4 2.37 1.541 1.541 0 0 1 .263 1.164 1.537 1.537 0 0 1-.643 1.006 1.458 1.458 0 0 1-.99.4Z" />
</svg>