<svg xmlns="http://www.w3.org/2000/svg" width="85" height="67" fill="none" viewBox="0 0 85 67">
	<path fill="#820000"
		d="M37.763 66.412c-3.24 0-6.46-.24-9.69-.51a27.611 27.611 0 0 1-6.74-1.63c-2.36-.81-4.8-1.14-6.66-2.27a69.663 69.663 0 0 1-5.83-4c-1.14-.87-2-1.75-2.91-2.34-1.49-1-2.81-3-4-5a14.11 14.11 0 0 1-1.84-6c-.29-3.42 1.07-6.16 3.67-8.54.53-.49 0-.76.74-.73.74.03.19.26.68.79a14.09 14.09 0 0 0 5.57 3.43 30.46 30.46 0 0 0 6.33 1.34c2 .2 4.24-.36 6.4-.55a29.45 29.45 0 0 0 6.19-1.32c.14 0 .11-.33.25-.36 2.173.374 4.375.559 6.58.55 1.89 0 4.13-.9 6.54-.76 2 .12 4.14 1.27 6.39 1.58 2.27.313 4.563.41 6.85.29 2.16-.11 4.37-1.09 6.67-1.4 2.3-.31 4.48-.48 6.7-.83 2-.32 4.07-.37 6-.63 2.09-.29 4.15-.64 6-.73.95-.47.42-2.56 1.45-2.34 1.03.22.73 1.43 1.17 2.45 1.2 2.73-2 5.81-4.76 8.06a27.447 27.447 0 0 0-2.62 2l.22.18a12.015 12.015 0 0 0-1.23 1.57 30.407 30.407 0 0 1-5.78 6.28 42.5 42.5 0 0 1-6.86 5.08 48.42 48.42 0 0 1-6.06 2.72 43.36 43.36 0 0 1-6.39 1.67 47.507 47.507 0 0 1-6.44 1.32 58.99 58.99 0 0 1-6.59.63Zm-33.26-27.47a7.69 7.69 0 0 0-1.78 5.63 12.57 12.57 0 0 0 4.82 8.62c1 .65 2.56.83 3.7 1.7 1.58 1.2 3.33 2.4 5.28 3.6a28.005 28.005 0 0 0 5.62 2.91 24.314 24.314 0 0 0 6.16 1.73c2.33.2 4.61.49 6.88.57 2.27.08 4.63.35 6.92.2 2.32-.114 4.63-.395 6.91-.84a44 44 0 0 0 6.62-2.17 46.51 46.51 0 0 0 6.33-2.91 44.998 44.998 0 0 0 6.52-4.52c2.75-2.36 3.64-4.78 4.67-6.38.4-.711.844-1.396 1.33-2.05a21.11 21.11 0 0 1 2.66-2.81 36 36 0 0 0 3.53-3c-3.15.25-6.78 1.69-10.51 2.28-2.31.37-4.78-.2-7.09.11-2.31.31-4.7.47-7 .58-2.45.12-4.8.8-7 .5-2.2-.3-4.22-.67-6.2-.78-2.29-.14-4.42-.44-6.25-.43-3.31 0-5.7.35-6.27.4-2.17.67-4.29 1.91-6.49 2.11-2.28.148-4.57.085-6.84-.19a33.314 33.314 0 0 1-6.68-1.35 18.869 18.869 0 0 1-5.84-3.51Zm71.15 7.15-.08-.07s.07.07.08.07Z" />
	<path fill="#820000"
		d="M4.443 39.092c-.57 0-.78-1-1-1.59-.22-.59-.15-.91.42-1.35.57-.44 1-.65 1.57-.07.57.58.81 1.4.19 2-.74-.22-.54-1.7-1.15-1.21-.61.49.52.71 1 1.32-.12.12.1.65 0 .72a2.759 2.759 0 0 1-1.03.18ZM82.553 38.852c-.69 0-1.52.13-1.73-.49 0 0 .11-.09.1-.11-.27-.81.42-1.36 1.23-1.64.81-.28 1.23-.14 1.55.59.09.21.43.36.43.58 0 .9-.73 1.07-1.58 1.07Z" />
	<path fill="#820000"
		d="M20.603 43.272c-2.12 0-4.28.51-6.22.16-2.17-.39-3.89-1.91-5.64-2.64-2.19-.91-4.6-1.16-5.78-2.44-1.54-1.66-1.12-4.15-.68-6.07a10 10 0 0 1-1.84-7.84 20.691 20.691 0 0 1 3.55-7.5 42.302 42.302 0 0 1 3.73-6.06 26.9 26.9 0 0 1 5.44-4.68c2-1.302 4.157-2.344 6.42-3.1 2.06-.71 4.5-.62 7-1.06a57.998 57.998 0 0 1 7.2-1 41.45 41.45 0 0 1 7.32 0 46 46 0 0 1 7.24 1.33c2.2.67 4.06 2.61 6.47 3.58 2.56 1 4.76 1.51 6.32 2.61a30.14 30.14 0 0 1 5.07 4.62 19.778 19.778 0 0 0 4.42 4 20.611 20.611 0 0 1 6 5.57 16.54 16.54 0 0 1 3 7.51c.11 1.35 2.3 3.31 3.7 4.36 0 0 .13-.08.18 0 .05.08.16 0 .23 0a3.51 3.51 0 0 1 1.19 2.09c.05.77-.79 1.5-1.33 2s-1 1.35-1.71 1.39c-1.82.09-3.85-.44-5.93-.15-1.87.26-3.71 1.32-5.72 1.64-2.31.37-4.67.67-7 1-2.33.33-4.79-.05-7.07 0a37.006 37.006 0 0 1-7-.31c-2.14-.3-4.25-.56-6.23-.68-2.29-.13-4.44.1-6.27.12a39.102 39.102 0 0 0-6.15.59c-3.21 1.03-6.67.96-9.91.96Zm15.05-39.71c-2.61 0-5.34 1-8.53 1.51-2.35.41-4.67 0-6.51.6-2.24.77-3.65 2.7-5.3 3.79-1.85 1.23-4.18 1.79-5.57 3.43-1.39 1.64-2.1 3.7-3.25 5.66-.07.12.12.24 0 .35a20.82 20.82 0 0 0-2.68 6.06c-.52 2.09-.67 4 .92 6.07.24.32.48.45.54.85.06.4-.78.35-.92.72-.42 1.14.07 2.33 1.09 3.43 1.16 1.27 3.18 2.08 5.54 2.89 2.017.56 4.09.895 6.18 1 2 .21 4.17 1.4 6.33 1.2 2.16-.2 4.13-1.23 6.15-1.87.093-.04.19-.07.29-.09.19 0 2.72-.27 6.52-.31 1.9 0 4.13-.11 6.54 0 2 .13 4.2.71 6.45 1 2.252.166 4.515.13 6.76-.11 2.16-.11 4.4-.48 6.69-.79 2.29-.31 4.43-.79 6.65-1.14 2-.32 3.87-.72 5.72-1 2-.28 4.08 0 5.89-.07-1.14-.93-4.59-3.52-4.83-6.28a12.44 12.44 0 0 0-2.17-6.3c-1.24-1.72-3.34-2.85-5.36-4.08a23.639 23.639 0 0 1-5.14-4.62c-1.28-1.4-2.15-3.27-4.12-4.65a26.39 26.39 0 0 0-5.5-3c-2.1-.84-4-1.65-5.92-2.26a44.812 44.812 0 0 0-6.2-1.3 35.829 35.829 0 0 0-6.26-.69Z" />
	<path fill="#820000"
		d="M20.003 12.572a8.321 8.321 0 0 1 7.48-1.92 8.336 8.336 0 0 0 1.84 0c.49 0 1 .35 1.54 0a8.6 8.6 0 0 1 4-.9c2.695-.175 5.4.109 8 .84a6.35 6.35 0 0 1 3.57 2.53c.79 1.1 1.56.24 2.85.2 2.35-.15 4.18 1.57 5.43 3.55.39.67 1.18.66 1.43.79.62.36 2.63.36 3.47.53 2.24.334 4.371 1.19 6.22 2.5 2 1.3 2.94 3.05 4.16 5.08a37.807 37.807 0 0 0 4.54 5.49 27.703 27.703 0 0 1-5.1-4.54c-1.32-1.79-1.74-4.2-3.71-5.35-1.44-.83-3.67-.37-6.45-.59a10.595 10.595 0 0 0-2-.42 4.34 4.34 0 0 1-3.1-2c-.89-1.8-2.79-3.41-4.82-3.23-.92.09-2.51.72-3.48-.07a15.84 15.84 0 0 1-1.72-1.2c-.62-.58-.88-1.73-1.74-2a25.999 25.999 0 0 0-7.56-1.25c-1.64-.07-3 1-4.48 1.57-1.06.39-2.38-.34-3.23-.66a8.41 8.41 0 0 0-7.24.94c-.03.14.1.11.1.11ZM8.303 23.322c.93-3.12 4.5-4.55 7.34-4.35 1.92.07 4.49.63 5.69 2.44 0 0-1.59.88-2.08.28a8 8 0 0 1 3-2.23 6.56 6.56 0 0 1 3.35 0c.91.16 1.54.7 2.24 0a3.23 3.23 0 0 1 2.75-1.23 3.59 3.59 0 0 0-2.31 1.61c-.13.21.07.78-.19 1-.68.59-2 0-2.69-.1a6.639 6.639 0 0 0-5.66 2.68s.1-.24-.27-.77a3.61 3.61 0 0 0-2.35-1.1c-3.09-.45-6.86-1.08-9.1 1.69-.17.16.28.08.28.08ZM27.553 30.622a10.14 10.14 0 0 1 7.92-1.48 5.78 5.78 0 0 0 3.33-.08c1-.42 2.39-1.12 3.57-1.53 2.61-1.09 5.53-.87 8.39-.27 2.86.6 5.57 2.22 6.37 5.23 0 0-1.14-.53-.65-.8 2.08 0 4.41-1.34 6.54-.57a5.67 5.67 0 0 1 3.14 3s-.88-.11-.52-.23a12 12 0 0 1 8 1.71 13.61 13.61 0 0 0-8.3-.23c-.22-.44-.28-1.38-.78-1.72a4.94 4.94 0 0 0-3.11-.45c-1.875.28-3.765.448-5.66.5a6.86 6.86 0 0 0-5.38-5 13.56 13.56 0 0 0-7.31.89c-1.36.44-2.41.55-3.89 1a6.89 6.89 0 0 1-4.09-.22c-2.38-.81-5.35-1.21-7.82-.16 0-.09.25.41.25.41ZM23.223 49.002a12.541 12.541 0 0 0 9.89 1.26c2.25-.88 3.88-3.15 6.48-3.62 1.13-.34 2.25.73 3.29 1.06a18.17 18.17 0 0 0 5.9.25 10.51 10.51 0 0 0 5.34-1.89s.41.61.62.57c.21-.04 0-.1.16 0 2.95 1 5.85.29 8.58-.3a19.5 19.5 0 0 0 8.05-3.71c-2 2.19-4.59 5-7.59 5.91a18.001 18.001 0 0 1-9.59-.11c-.34-.14 1.05-1 .8-.73a11.55 11.55 0 0 1-6.12 2.08 17.14 17.14 0 0 1-6.46-1.07c-.659-.139-1.327-.23-2-.27-.46-.1-1.23-.47-1.72-.34-1.82.5-3.47 2.62-5.49 3.12a13.391 13.391 0 0 1-5.31-.09 8.87 8.87 0 0 1-4.72-2.27l-.11.15ZM12.043 52.342a8.78 8.78 0 0 0 5 2.85c1.81.32 3.52-.87 5.14-1.85.39.41.726.866 1 1.36.72 1.58 2.32 2.06 3.82 2.77 1.8.82 3.27 2.31 5.2 2.56 1.22.21 2.54-.22 3.88-.24-1.85.78-4.14 1.81-6.18 1.11-1.29-.41-2.25-1.65-3.44-2.08-2-.7-4.36-.78-5.33-3.47 0 0 1.41 0 1.18.67-1.81.79-3.81.35-5.65-.36-1.84-.71-3.54-1.72-4.23-3.61-.13-.18-.39.29-.39.29ZM45.863 55.382c2.8 2.38 5.68.86 8.48-.47.59-.35.16-.44.44-1 .68-1.63 3.18-1.32 4.36-.84a8.34 8.34 0 0 0 4.92 0c-1.44 1.66-4.32 1.89-6.46 1.47-.49 0-1.13 0-1.21.24a3.73 3.73 0 0 1-2.3 2.58c-2.66 1.31-7.68 1.88-9-1.44-.07-.24.77-.54.77-.54ZM4.643 37.962c.52 2.22 1.15 4.61 2.64 6.23.88.93 1.82.46 3 .7 2.17.45 3.21 2.38 4.84 3.36a6.29 6.29 0 0 0 2.28.7 5.11 5.11 0 0 1-2.77.91c-2-.2-3.19-2.11-5-2.51-.32-.1-.4-.63-1-.79-1-.32-1.3-1.25-1.85-1.94-1.46-2-2.35-4.21-1.79-6.6a1.592 1.592 0 0 0-.35-.06Z" />
</svg>