<svg xmlns="http://www.w3.org/2000/svg" width="312" height="62" fill="none" viewBox="0 0 312 62">
	<path fill="#fff"
		d="M41.488 39.66c3.124.006 6.207-.72 9-2.12a20.458 20.458 0 0 0 6.92-5.67 19.69 19.69 0 0 0 3.49-17.13 18.9 18.9 0 0 0-2.89-6.24A19.79 19.79 0 0 0 41.718 0h-10.22C14.358 0 .298 13.66.168 30.45a30.74 30.74 0 0 0 25 30.42.16.16 0 0 0 .13 0 .17.17 0 0 0 0-.12v-30a5.55 5.55 0 0 1 5.54-5.54h10.72a5.44 5.44 0 0 0 5.47-4.63 5.331 5.331 0 0 0-5.28-6h-10.43a16.82 16.82 0 0 0-11.61 4.62 15.81 15.81 0 0 0-5 11.3 16.139 16.139 0 0 0 7.19 13.75l.07.05v4.42a19.999 19.999 0 0 1-11-17.47 19.58 19.58 0 0 1 5.71-14.22 20.8 20.8 0 0 1 14.83-6.27h10.05a9.28 9.28 0 0 1 9.33 9.05 9.06 9.06 0 0 1-2.91 6.82 9.5 9.5 0 0 1-6.55 2.47h-10.43a1.85 1.85 0 0 0-1.85 1.85v30.51h3.41v-29h8.78a13 13 0 0 0 9.11-3.52 12.461 12.461 0 0 0 3.85-9.23 12.7 12.7 0 0 0-12.74-12.46h-10.15A24.27 24.27 0 0 0 14.558 14a23.002 23.002 0 0 0-7.18 16.49 23.46 23.46 0 0 0 14.49 21.87v4.11a26.998 26.998 0 0 1-7.69-4.15 27.49 27.49 0 0 1-5.89-6.24 27.21 27.21 0 0 1-4.71-16.62 26.78 26.78 0 0 1 8.66-18.53 28.11 28.11 0 0 1 19.19-7.53h9.88a16.86 16.86 0 0 1 11.3 4.16 16.23 16.23 0 0 1 5.49 12.38 16.56 16.56 0 0 1-16.64 16.29h-4.84a.24.24 0 0 0-.24.24V61.4h18.2l1.24-3.41h-16v-3.84h17.42l1.24-3.41h-18.66v-3.83h20.06l1.24-3.42h-21.3v-3.83h1.67Zm-19.57-9v9.15-.06a12.79 12.79 0 0 1 9-21.88h10.88a1.92 1.92 0 1 1 0 3.84h-10.88a9 9 0 0 0-9 8.99v-.04Zm194.16-14.61a13.08 13.08 0 0 0-8.92-3.33h-17l-13.06 35.88h3.64l12.12-33.3v33.3h8.57V36.52h5.76a13.08 13.08 0 0 0 8.92-3.33 11.744 11.744 0 0 0 3.69-8.55 11.743 11.743 0 0 0-3.69-8.55l-.03-.04Zm-5.6 12.06a5.229 5.229 0 0 1-3.61 1.24h-5.47v-9.5h5.47a5.19 5.19 0 0 1 3.61 1.25 5.11 5.11 0 0 1 0 7v.01Zm-85.65-5.63a13.321 13.321 0 0 0-13.18 11.42h-9a9.77 9.77 0 0 1-3.33 4.91 9.74 9.74 0 0 1-12.82-1 10.89 10.89 0 0 1 0-14.33 9.72 9.72 0 0 1 12.82-1 9.735 9.735 0 0 1 3.32 4.89l8.15-3a18.45 18.45 0 1 0-5.66 20.63 18.552 18.552 0 0 0 6.37-10.39h.06c0 .43-.06.85-.06 1.25a13.323 13.323 0 0 0 8.216 12.313 13.318 13.318 0 0 0 17.411-17.398 13.319 13.319 0 0 0-12.307-8.225l.01-.07Zm0 19.24c-3.12 0-5.47-2.56-5.47-5.95s2.35-5.95 5.47-5.95c3.12 0 5.46 2.56 5.46 5.95s-2.35 5.99-5.46 5.99v-.04Zm187.16-10.59V48.6h-8.58V33.12a3.257 3.257 0 0 0-3.26-3.26 3.258 3.258 0 0 0-3.26 3.26v15.52h-8.58V23.11l-1.75 4.89h-5.06v20.64h-8.58V28h-5.89v-5h5.89v-6.78h7.85V23h7.56V12.76h7.85v14.69l.06-.11c1.72-3.2 4.29-4.82 7.63-4.82a7.87 7.87 0 0 1 6 2.37 9 9 0 0 1 2.12 6.28v-.04ZM230.698 23h-7.63l-2.55 7h8.7c1.57 0 3 .18 3 2.33h-6.12a7.997 7.997 0 0 0-6.16 2.7 8.996 8.996 0 0 0-2.22 5.88 8.248 8.248 0 0 0 2.3 5.81 7.905 7.905 0 0 0 5.67 2.35c2.88 0 5.11-1 6.45-2.81l.06-.08v2.39h7.86v-15.5c0-3.52-.79-6.05-2.41-7.73-1.62-1.68-3.84-2.34-6.95-2.34Zm1.48 17a3.146 3.146 0 0 1-2.09 2.822c-.391.139-.805.2-1.22.178a2.93 2.93 0 0 1-3-3.23 3.19 3.19 0 0 1 3.32-3.22h3l-.01 3.45Zm23-17.54a13.139 13.139 0 0 0-13.12 13.12 13.512 13.512 0 0 0 13.5 13.5 13.87 13.87 0 0 0 12.15-7.19l-7.2-2.62a5.728 5.728 0 0 1-5.33 3.08 6.06 6.06 0 0 1-4.07-1.49 5.542 5.542 0 0 1-1.83-3.51h18.67v-2.09a12.778 12.778 0 0 0-3.761-9.02 12.774 12.774 0 0 0-9.039-3.72l.03-.06Zm-5.22 9.88v-.05a5.851 5.851 0 0 1 10.4 0v.05h-10.4Zm-68-9.33-11.31 31.08h-8.26l4.07-11.09-7.84-19.55v-.08l-2.75 7.57h-1.93a5.25 5.25 0 0 0-5.43 5.54v12.16h-8.58V23.58h7.84v6l.07-.21a9.002 9.002 0 0 1 3.13-4.64 7.88 7.88 0 0 1 4.83-1.65h11.29l3.11 9.76 3.55-9.76 8.21-.07Z" />
</svg>